<svg xmlns="http://www.w3.org/2000/svg" viewBox="6 1 246 246" role="img" aria-labelledby="title">
  <title id="title">Notify Hub mark</title>
  <g fill="#0873F9">
    <rect x="18" y="36" width="160" height="146" rx="36"/>
    <path d="M58 166h58l-58 48z"/>
  </g>
  <g fill="#FFFFFF" transform="translate(98,109) scale(0.78) translate(-98,-124)">
    <circle cx="98" cy="67" r="8"/>
    <path d="M98 74c-21 0-34 16-34 37v25c0 8-4 14-11 18-5 3-3 11 3 11h84c6 0 8-8 3-11-7-4-11-10-11-18v-25c0-21-13-37-34-37z"/>
    <path d="M83 171h30c-2 12-8 18-15 18s-13-6-15-18z"/>
  </g>
  <g fill="none" stroke="#0873F9" stroke-linecap="round" stroke-width="12">
    <path d="M195 78c20 18 20 52 0 70"/>
    <path d="M216 58c32 30 32 80 0 110"/>
  </g>
</svg>
